<!DOCTYPE svg PUBLIC "-//W3C//DTD SVG 1.1//EN" "http://www.w3.org/Graphics/SVG/1.1/DTD/svg11.dtd">
<!-- Uploaded to: SVG Repo, www.svgrepo.com, Transformed by: SVG Repo Mixer Tools -->
<svg width="204px" height="204px" viewBox="-3.12 -3.12 30.24 30.24" role="img" xmlns="http://www.w3.org/2000/svg" aria-labelledby="turnRightIconTitle" stroke="#FF5D00" stroke-width="2.208" stroke-linecap="round" stroke-linejoin="round" fill="none" color="#000000" transform="matrix(1, 0, 0, 1, 0, 0)rotate(0)">
<g id="SVGRepo_bgCarrier" stroke-width="0" transform="translate(1.1999999999999993,1.1999999999999993), scale(0.9)">
<path transform="translate(-3.12, -3.12), scale(0.9450000000000001)" d="M16,30.05213801562786C18.806417846167765,29.750862927882764,20.337253005247387,26.771692397841353,22.615840840261143,25.105923721250257C24.884553275366176,23.447374486272942,28.03427028999909,22.829246857053224,29.30729182120819,20.323801216229604C30.653972284812905,17.673386738230832,30.168198937071203,14.5134591275607,29.46565294520844,11.624744135465136C28.71412116030749,8.534610309032612,28.03271594394488,4.7717880510600335,25.18210111601215,3.361922031982699C22.327255065728842,1.9499633216891457,19.12932972002166,4.372348630334644,16,4.964859283218782C13.612454568178403,5.4169197016362345,11.222139749237375,5.352165618968833,9.038660666539569,6.418538399160209C6.46230044025061,7.676787419749738,3.233731047949794,8.838653098745244,2.431683122608762,11.59138660180622C1.6298904696764285,14.343243976534175,4.191556543896663,16.827643034796367,5.227095594708796,19.500328826913353C6.18568092493423,21.974400075714655,6.369334450445958,24.789931988985096,8.264839494015,26.646535072380402C10.327952533242359,28.667306287428374,13.128600854233309,30.36038898786756,16,30.05213801562786" fill="#0F3147" strokewidth="0"/>
</g>
<g id="SVGRepo_tracerCarrier" stroke-linecap="round" stroke-linejoin="round" stroke="#CCCCCC" stroke-width="0.048"/>
<g id="SVGRepo_iconCarrier"> <title id="turnRightIconTitle">Turn Right</title> <path d="M3.71493213,19.3875 C3.71493213,13.0983574 9.05986213,9 15.6531674,9 L19,9"/> <polyline points="15 4 20 9 15 14 15 14"/> </g>
</svg>